<?xml version="1.0" encoding="UTF-8"?>
<svg xmlns="http://www.w3.org/2000/svg" viewBox="0 0 1200 800" width="1200" height="800" role="img" aria-label="Placeholder image">
  <defs>
    <linearGradient id="g" x1="0" y1="0" x2="1" y2="1">
      <stop offset="0%" stop-color="#1273de" stop-opacity="0.15"/>
      <stop offset="100%" stop-color="#1273de" stop-opacity="0.35"/>
    </linearGradient>
  </defs>
  <rect width="1200" height="800" fill="#f3f9ff"/>
  <rect x="0" y="0" width="1200" height="800" fill="url(#g)"/>
  <g fill="#1273de" opacity="0.15">
    <circle cx="200" cy="120" r="80"/>
    <circle cx="1080" cy="680" r="100"/>
    <circle cx="980" cy="180" r="60"/>
    <circle cx="160" cy="640" r="70"/>
  </g>
  <g>
    <rect x="300" y="220" width="600" height="360" rx="24" fill="#ffffff" stroke="#1273de" stroke-opacity="0.25" stroke-width="6"/>
    <rect x="330" y="250" width="180" height="24" rx="6" fill="#1273de" opacity="0.35"/>
    <rect x="330" y="300" width="540" height="14" rx="7" fill="#1273de" opacity="0.25"/>
    <rect x="330" y="330" width="460" height="14" rx="7" fill="#1273de" opacity="0.25"/>
    <rect x="330" y="360" width="500" height="14" rx="7" fill="#1273de" opacity="0.25"/>
    <rect x="330" y="420" width="140" height="36" rx="10" fill="#1273de" opacity="0.6"/>
    <rect x="480" y="420" width="140" height="36" rx="10" fill="#1273de" opacity="0.4"/>
  </g>
  <text x="600" y="640" text-anchor="middle" font-family="Segoe UI, Roboto, Arial, sans-serif" font-size="28" fill="#1b1f23" opacity="0.7">Placeholder</text>
</svg>

